<?xml version="1.0" encoding="UTF-8" standalone="no"?>
<!-- Created with Inkscape (http://www.inkscape.org/) -->

<svg
   xmlns:dc="http://purl.org/dc/elements/1.1/"
   xmlns:cc="http://creativecommons.org/ns#"
   xmlns:rdf="http://www.w3.org/1999/02/22-rdf-syntax-ns#"
   xmlns:svg="http://www.w3.org/2000/svg"
   xmlns="http://www.w3.org/2000/svg"
   xmlns:sodipodi="http://sodipodi.sourceforge.net/DTD/sodipodi-0.dtd"
   xmlns:inkscape="http://www.inkscape.org/namespaces/inkscape"
   width="2446.8306"
   height="611.90631"
   id="svg4825"
   version="1.1"
   inkscape:version="0.48.4 r9939"
   sodipodi:docname="logo-koodous.svg">
  <defs
     id="defs4827" />
  <sodipodi:namedview
     id="base"
     pagecolor="#ffffff"
     bordercolor="#666666"
     borderopacity="1.0"
     inkscape:pageopacity="0.0"
     inkscape:pageshadow="2"
     inkscape:zoom="0.0875"
     inkscape:cx="-89.061268"
     inkscape:cy="-1247.0557"
     inkscape:document-units="px"
     inkscape:current-layer="layer1"
     showgrid="false"
     fit-margin-top="0"
     fit-margin-left="0"
     fit-margin-right="0"
     fit-margin-bottom="0"
     inkscape:window-width="1313"
     inkscape:window-height="744"
     inkscape:window-x="53"
     inkscape:window-y="24"
     inkscape:window-maximized="1" />
  <metadata
     id="metadata4830">
    <rdf:RDF>
      <cc:Work
         rdf:about="">
        <dc:format>image/svg+xml</dc:format>
        <dc:type
           rdf:resource="http://purl.org/dc/dcmitype/StillImage" />
        <dc:title></dc:title>
      </cc:Work>
    </rdf:RDF>
  </metadata>
  <g
     inkscape:label="Capa 1"
     inkscape:groupmode="layer"
     id="layer1"
     transform="translate(944.82886,705.01954)">
    <g
       style="font-size:376.79690552px;font-style:normal;font-variant:normal;font-weight:bold;font-stretch:expanded;text-align:start;line-height:125%;letter-spacing:0px;word-spacing:0px;writing-mode:lr-tb;text-anchor:start;fill:#ffffff;fill-opacity:1;stroke:none;font-family:Novecento sans wide;-inkscape-font-specification:Novecento sans wide Bold Expanded"
       id="text3104-3">
      <path
         d="m -13.928001,-293.56381 68.20024,0 -78.750553,-128.11095 75.736178,-82.89532 -74.228991,0 -55.765942,65.18587 c -9.043117,10.92709 -16.579066,19.97023 -18.463048,21.85422 l -1.507188,0 0,-42.57805 0,-44.46204 -59.533915,0 0,211.00627 59.533915,0 0,-53.50516 30.897346,-33.91172 53.881958,87.41688"
         style="line-height:125%;fill:#ffffff;font-family:Novecento sans wide;-inkscape-font-specification:Novecento sans wide Bold Expanded"
         id="path4963" />
      <path
         d="m 54.195699,-399.06695 c 0,64.05541 47.476481,109.6479 113.792661,109.6479 66.69299,0 114.16947,-45.59249 114.16947,-109.6479 0,-64.05541 -47.47648,-109.6479 -114.16947,-109.6479 -66.31618,0 -113.792661,45.59249 -113.792661,109.6479 m 60.664301,0 c 0,-32.78129 21.10066,-55.01234 53.12836,-55.01234 32.40451,0 53.50517,22.23105 53.50517,55.01234 0,32.7813 -21.10066,55.01235 -53.50517,55.01235 -32.0277,0 -53.12836,-22.23105 -53.12836,-55.01235"
         style="line-height:125%;fill:#ffffff;font-family:Novecento sans wide;-inkscape-font-specification:Novecento sans wide Bold Expanded"
         id="path4965" />
      <path
         d="m 305.14832,-399.06695 c 0,64.05541 47.47648,109.6479 113.79267,109.6479 66.69298,0 114.16946,-45.59249 114.16946,-109.6479 0,-64.05541 -47.47648,-109.6479 -114.16946,-109.6479 -66.31619,0 -113.79267,45.59249 -113.79267,109.6479 m 60.6643,0 c 0,-32.78129 21.10066,-55.01234 53.12837,-55.01234 32.4045,0 53.50516,22.23105 53.50516,55.01234 0,32.7813 -21.10066,55.01235 -53.50516,55.01235 -32.02771,0 -53.12837,-22.23105 -53.12837,-55.01235"
         style="line-height:125%;fill:#ffffff;font-family:Novecento sans wide;-inkscape-font-specification:Novecento sans wide Bold Expanded"
         id="path4967" />
      <path
         d="m 564.44348,-504.57008 0,211.00627 86.28649,0 c 67.44658,0 118.31423,-37.30296 118.31423,-104.74954 0,-66.69299 -50.86765,-106.25673 -117.93744,-106.25673 l -86.66328,0 m 59.53391,155.61712 0,-100.22797 26.75258,0 c 36.17246,0 57.64992,15.07191 57.64992,50.86758 0,36.17246 -21.47746,49.36039 -58.40352,49.36039 l -25.99898,0"
         style="line-height:125%;fill:#ffffff;font-family:Novecento sans wide;-inkscape-font-specification:Novecento sans wide Bold Expanded"
         id="path4969" />
      <path
         d="m 792.33494,-399.06695 c 0,64.05541 47.47647,109.6479 113.79266,109.6479 66.69299,0 114.1695,-45.59249 114.1695,-109.6479 0,-64.05541 -47.47651,-109.6479 -114.1695,-109.6479 -66.31619,0 -113.79266,45.59249 -113.79266,109.6479 m 60.6643,0 c 0,-32.78129 21.10066,-55.01234 53.12836,-55.01234 32.4045,0 53.50516,22.23105 53.50516,55.01234 0,32.7813 -21.10066,55.01235 -53.50516,55.01235 -32.0277,0 -53.12836,-22.23105 -53.12836,-55.01235"
         style="line-height:125%;fill:#ffffff;font-family:Novecento sans wide;-inkscape-font-specification:Novecento sans wide Bold Expanded"
         id="path4971" />
      <path
         d="m 1250.9557,-504.57008 -59.5339,0 0,114.54626 c 0,32.7813 -14.3183,45.96922 -40.6941,45.96922 -26.3757,0 -40.6941,-13.18792 -40.6941,-45.96922 l 0,-114.54626 -60.6643,0 0,108.89431 c 0,74.22891 41.071,106.25672 100.9816,106.25672 59.1571,0 100.6048,-32.02781 100.6048,-106.25672 l 0,-108.89431"
         style="line-height:125%;fill:#ffffff;font-family:Novecento sans wide;-inkscape-font-specification:Novecento sans wide Bold Expanded"
         id="path4973" />
      <path
         d="m 1279.8807,-346.69218 c 10.1736,46.34598 55.766,57.27313 94.5761,57.27313 49.7371,0 88.5472,-18.46309 88.5472,-66.31625 0,-48.22996 -39.9405,-61.04111 -67.8234,-66.31626 -34.6653,-7.15913 -50.114,-9.04314 -50.114,-22.98461 0,-11.68069 10.5503,-17.70945 27.1294,-17.70945 19.2166,0 32.4045,7.91274 36.1725,20.72383 l 51.998,-13.94149 c -10.1735,-33.91169 -41.8245,-52.75157 -91.1849,-52.75157 -52.7515,0 -85.5329,21.10068 -85.5329,66.31626 0,41.44762 28.6366,53.50517 57.2731,60.2875 39.1869,9.04312 61.0411,8.66635 61.0411,27.50618 0,13.56467 -10.9271,19.21664 -27.8829,19.21664 -27.5062,0 -37.6797,-15.07189 -39.9405,-25.62219 l -54.2588,14.31828"
         style="line-height:125%;fill:#ffffff;font-family:Novecento sans wide;-inkscape-font-specification:Novecento sans wide Bold Expanded"
         id="path4975" />
    </g>
    <path
       style="fill:#ffffff;fill-opacity:1;stroke:none"
       d="m -609.64409,-695.26642 c -163.58792,0 -296.18477,132.62698 -296.18477,296.21519 0,163.58792 132.59685,296.18484 296.18477,296.18484 37.50366,0 73.37985,-6.98006 106.40283,-19.6952 l -123.13306,-244.90477 -108.03651,126.55165 c -2.55136,2.98342 -6.09365,5.12613 -9.92318,5.99055 -3.82973,0.86403 -7.91098,0.44918 -11.49631,-1.14967 -3.58572,-1.59875 -6.64531,-4.37959 -8.56183,-7.80549 -1.91661,-3.42629 -2.69257,-7.48381 -2.17863,-11.3756 l 40.78223,-308.92172 c 1.01105,-7.58801 7.24341,-14.18238 14.76406,-15.61098 3.76018,-0.71411 7.75745,-0.20017 11.22408,1.4219 3.46693,1.62207 6.3981,4.34006 8.25937,7.68439 l 78.29671,131.2413 176.65195,-200.03829 c -48.68071,-35.10184 -108.45077,-55.7881 -173.05171,-55.7881 z m 198.91889,76.72358 -183.61027,213.50116 160.98032,244.02723 c 72.76013,-53.96957 119.92625,-140.48722 119.92625,-238.03678 0,-87.02207 -37.5424,-165.29966 -97.2963,-219.49161 z m -285.95908,114.35955 -21.05658,176.28894 66.34652,-76.36067 -45.28994,-99.92827 z"
       id="path3119-5"
       inkscape:connector-curvature="0"
       inkscape:export-filename="/home/paco/Imágenes/koodous/8.png"
       inkscape:export-xdpi="17.502682"
       inkscape:export-ydpi="17.502682" />
  </g>
</svg>
